<?xml version="1.0" standalone="no"?>
<!DOCTYPE svg PUBLIC "-//W3C//DTD SVG 20010904//EN"
 "http://www.w3.org/TR/2001/REC-SVG-20010904/DTD/svg10.dtd">
<svg version="1.0" xmlns="http://www.w3.org/2000/svg"
 width="120" height="96" viewBox="0 0 128.000000 128.000000"
 preserveAspectRatio="xMidYMid meet">
<metadata>
Created by potrace 1.16, written by Peter Selinger 2001-2019
</metadata>
<g transform="translate(0.000000,128.000000) scale(0.100000,-0.100000)"
fill="#ffffff" stroke="none">
<path d="M552 1263 c-18 -9 -44 -35 -59 -60 -34 -59 -30 -144 10 -196 95 -125
307 -53 307 106 0 46 -39 118 -79 144 -41 28 -129 31 -179 6z m133 -37 c40
-17 75 -68 75 -111 0 -60 -63 -125 -120 -125 -76 0 -143 86 -120 154 12 37 43
70 80 85 35 14 46 13 85 -3z"/>
<path d="M130 1012 c-50 -25 -82 -77 -78 -127 4 -56 27 -52 45 7 17 59 52 88
105 88 46 0 92 -38 104 -86 7 -28 -23 -97 -67 -155 l-19 -24 0 32 c0 22 6 36
20 43 28 15 28 85 1 100 -29 15 -67 12 -85 -6 -22 -22 -20 -71 4 -91 12 -11
20 -30 20 -48 0 -30 0 -30 -31 18 -19 28 -39 47 -50 47 -26 0 -24 -28 5 -71
14 -20 28 -53 32 -75 8 -49 30 -74 64 -74 37 0 57 19 63 62 3 21 22 64 41 96
47 74 58 115 47 164 -22 96 -131 145 -221 100z"/>
<path d="M1018 985 c-16 -33 -28 -45 -44 -45 -74 0 -95 -42 -46 -93 22 -23 27
-37 27 -80 0 -61 15 -69 75 -42 35 16 40 16 69 0 18 -9 42 -15 54 -13 19 3 22
9 22 55 0 43 5 57 28 80 48 51 26 93 -49 93 -19 0 -29 10 -46 45 -17 34 -28
45 -45 45 -18 0 -29 -11 -45 -45z m112 -90 l32 -7 -23 -24 c-17 -18 -21 -31
-16 -59 5 -32 4 -36 -11 -29 -22 10 -72 10 -95 0 -16 -8 -18 -5 -12 26 6 30 3
39 -20 60 l-27 25 37 7 c26 5 41 16 53 36 l16 28 17 -28 c11 -17 30 -31 49
-35z"/>
<path d="M550 877 c-55 -17 -133 -102 -150 -162 -7 -27 -26 -80 -42 -117 -15
-37 -28 -84 -28 -105 0 -79 68 -153 140 -153 38 0 86 -37 78 -60 -2 -6 -32
-24 -67 -38 -92 -39 -124 -82 -129 -173 -4 -65 -3 -69 17 -69 16 0 21 6 21 28
0 84 42 144 121 173 44 16 45 16 72 -7 37 -31 81 -31 113 1 l24 24 45 -19 c25
-11 52 -17 60 -14 31 12 14 36 -45 61 -33 15 -60 30 -60 35 0 22 56 57 91 58
72 0 139 75 139 153 0 21 -12 66 -26 100 -15 34 -33 83 -41 110 -11 36 -18 47
-35 47 -19 0 -20 -4 -14 -42 4 -23 20 -75 36 -116 17 -40 30 -86 30 -100 0
-38 -33 -88 -67 -99 l-28 -10 3 131 c4 156 4 156 -103 156 -58 0 -81 5 -120
26 -26 14 -54 23 -61 20 -7 -3 -23 -24 -34 -46 -19 -37 -21 -56 -18 -164 l3
-123 -28 10 c-34 11 -67 61 -67 99 0 14 14 60 30 101 17 42 30 80 30 87 0 6 9
27 19 48 37 72 102 112 181 112 49 0 120 -27 135 -50 9 -14 42 -13 51 2 10 16
-57 72 -104 86 -48 15 -125 14 -172 -1z m139 -255 l84 -5 -5 -103 c-3 -73 -9
-110 -21 -128 -53 -80 -162 -79 -214 1 -22 34 -26 214 -5 251 12 22 14 22 45
5 19 -10 65 -18 116 -21z"/>
</g>
</svg>
