<?xml version="1.0" standalone="no"?>
<!DOCTYPE svg PUBLIC "-//W3C//DTD SVG 20010904//EN"
 "http://www.w3.org/TR/2001/REC-SVG-20010904/DTD/svg10.dtd">
<svg version="1.0" xmlns="http://www.w3.org/2000/svg"

 width="120" height="96" viewBox="0 0 512.000000 512.000000"
 preserveAspectRatio="xMidYMid meet">
<metadata>
Created by potrace 1.16, written by Peter Selinger 2001-2019
</metadata>
<g transform="translate(0.000000,512.000000) scale(0.100000,-0.100000)"
fill="#fff" stroke="none">
<path d="M2010 5097 c-175 -60 -299 -187 -355 -367 -14 -45 -19 -107 -22 -332
l-5 -278 -92 0 c-109 0 -159 -19 -202 -76 -28 -36 -29 -42 -32 -165 -3 -113
-1 -131 17 -168 12 -23 30 -46 39 -52 17 -11 17 -13 -2 -53 -32 -63 -29 -175
6 -241 45 -86 124 -141 219 -152 l49 -6 0 -48 c0 -77 20 -198 46 -279 13 -41
24 -78 24 -82 0 -4 -303 -9 -672 -10 l-673 -3 -48 -24 c-59 -29 -121 -98 -141
-158 -24 -69 -24 -857 0 -925 20 -61 75 -123 138 -156 49 -25 59 -27 231 -30
l181 -4 -4 -33 c-4 -29 -8 -33 -41 -39 -54 -8 -103 -45 -128 -96 -20 -39 -23
-59 -23 -177 l0 -133 -71 0 c-160 0 -194 -75 -194 -430 0 -355 34 -430 194
-430 l71 0 0 -49 c0 -67 27 -101 81 -101 57 0 79 26 79 94 l0 54 64 4 c83 5
148 44 191 112 l30 49 0 267 0 267 -30 49 c-43 68 -108 107 -191 112 l-64 4 0
119 c0 88 3 121 13 125 7 2 190 -77 407 -175 l395 -180 5 -430 c5 -404 6 -430
24 -450 26 -29 88 -29 116 1 19 21 20 33 20 449 l0 426 408 186 407 186 3
-612 2 -611 22 -23 c31 -33 90 -32 117 3 21 26 21 35 21 635 l0 609 33 -14
c17 -7 202 -91 410 -186 l377 -173 0 -426 c0 -416 1 -428 20 -449 28 -30 90
-30 116 -1 18 20 19 46 24 450 l5 430 395 179 c217 99 401 178 407 175 10 -3
13 -37 13 -124 l0 -119 -64 -4 c-83 -5 -148 -44 -191 -112 l-30 -49 0 -267 0
-267 30 -49 c43 -68 108 -107 191 -112 l64 -4 0 -54 c0 -68 22 -94 79 -94 54
0 81 34 81 101 l0 49 71 0 c160 0 194 75 194 430 0 355 -34 430 -194 430 l-71
0 0 133 c0 118 -3 138 -22 177 -26 51 -75 88 -129 96 -33 6 -37 10 -41 39 l-4
33 181 4 c172 3 182 5 231 30 63 33 118 95 138 156 24 68 24 856 0 925 -20 60
-82 129 -141 158 l-48 24 -672 3 c-370 1 -673 6 -673 11 0 5 7 28 16 52 23 67
42 165 49 265 l7 92 45 6 c98 13 181 70 223 153 33 64 35 178 4 239 -19 40
-19 42 -2 53 9 6 27 29 39 52 18 37 20 55 17 168 -3 123 -4 129 -32 165 -43
57 -93 76 -202 76 l-92 0 -5 278 c-3 225 -8 287 -22 332 -57 184 -195 321
-374 374 -47 14 -124 16 -535 16 -471 -1 -482 -1 -546 -23z m1044 -150 c112
-37 202 -124 248 -237 20 -51 22 -77 26 -322 l4 -268 -771 0 -771 0 0 228 c0
125 4 254 10 286 27 169 159 300 325 325 33 5 245 8 470 7 347 -2 417 -5 459
-19z m601 -1082 l0 -90 -654 -3 -655 -2 -23 -22 c-33 -31 -32 -90 3 -117 26
-21 36 -21 515 -21 l489 0 0 -228 c0 -256 -10 -359 -45 -470 -35 -111 -88
-195 -185 -293 -151 -152 -298 -219 -503 -227 -135 -5 -208 6 -316 49 -205 82
-376 262 -445 469 -36 108 -46 214 -46 472 l0 228 125 0 c71 0 135 5 149 11
46 21 57 99 19 131 -12 10 -92 14 -317 18 l-301 5 -3 79 c-2 44 -1 85 2 93 5
11 191 13 1098 11 l1093 -3 0 -90z m-2025 -375 c0 -133 0 -133 -65 -106 -38
16 -75 68 -75 104 0 55 64 122 118 122 22 0 22 -2 22 -120z m1931 105 c35 -19
69 -70 69 -105 0 -38 -36 -90 -75 -106 -65 -27 -65 -27 -65 106 0 114 1 120
20 120 12 0 34 -7 51 -15z m-3001 -1455 l0 -490 -70 0 c-86 0 -133 18 -160 62
-19 32 -20 49 -20 428 0 378 1 396 20 428 27 44 70 61 158 62 l72 0 0 -490z
m300 64 l0 -426 -42 -64 c-35 -53 -47 -64 -70 -64 l-28 0 0 490 0 490 70 0 70
0 0 -426z m940 417 c0 -18 169 -188 221 -222 l50 -34 -5 -64 c-6 -67 -22 -101
-59 -125 -12 -8 -197 -53 -412 -100 -397 -87 -481 -109 -541 -147 l-34 -21 0
361 0 361 390 0 c239 0 390 -4 390 -9z m2300 -350 l0 -360 -42 24 c-70 37
-154 60 -548 145 -206 45 -385 88 -397 96 -37 24 -53 58 -59 125 l-5 64 48 32
c54 36 170 149 205 200 l23 33 388 0 387 0 0 -359z m300 -131 l0 -490 -28 0
c-23 0 -35 11 -70 64 l-42 64 0 426 0 426 70 0 70 0 0 -490z m335 476 c19 -8
44 -30 55 -48 19 -32 20 -49 20 -428 0 -379 -1 -396 -20 -428 -27 -44 -74 -62
-160 -62 l-70 0 0 490 0 490 70 0 c39 0 86 -6 105 -14z m-2418 -358 c67 -20
102 -23 243 -23 142 0 176 3 244 23 85 24 96 22 96 -25 0 -13 7 -41 16 -64
l17 -41 -187 -186 -186 -187 -186 187 -187 186 17 41 c9 23 16 54 16 70 0 24
7 41 17 41 1 0 38 -10 80 -22z m-26 -464 c224 -224 227 -227 269 -227 42 0 45
3 269 226 l226 227 35 -10 c19 -5 55 -15 79 -21 l44 -11 -67 -67 c-58 -58 -66
-71 -66 -104 0 -49 28 -77 76 -77 33 0 47 10 143 105 l106 104 245 -54 c190
-43 262 -63 320 -92 100 -48 186 -135 233 -235 37 -77 63 -176 50 -189 -5 -5
-167 -80 -361 -168 l-352 -160 -355 161 -355 161 75 77 c41 43 76 86 76 96 3
42 -3 60 -28 82 -43 39 -75 25 -184 -84 l-95 -95 -57 9 c-33 5 -81 5 -114 0
l-57 -9 -268 268 c-147 147 -265 269 -263 271 3 3 44 15 145 41 3 0 107 -101
231 -225z m-288 -142 l288 -288 -354 -162 -355 -162 -354 161 c-194 88 -356
164 -361 168 -13 13 13 112 50 189 47 99 133 187 233 236 58 28 131 49 315 90
132 30 242 54 245 55 3 1 135 -129 293 -287z m-1274 -798 c17 -4 42 -18 56
-32 l25 -25 0 -217 0 -217 -26 -26 c-32 -33 -74 -39 -229 -35 l-120 3 -11 65
c-21 118 -14 406 11 478 5 13 233 18 294 6z m3964 -34 c15 -67 19 -360 5 -440
l-13 -75 -120 -3 c-155 -4 -197 2 -229 35 l-26 26 0 217 0 217 26 26 c33 33
42 35 209 33 l139 -1 9 -35z"/>
<path d="M2091 3494 c-18 -23 -21 -41 -21 -125 0 -108 10 -141 47 -158 37 -17
62 -13 88 14 24 23 25 30 25 140 0 102 -2 117 -20 135 -31 31 -93 27 -119 -6z"/>
<path d="M2910 3500 c-18 -18 -20 -33 -20 -135 0 -110 1 -117 25 -140 26 -27
51 -31 88 -14 37 17 47 50 47 158 0 84 -3 102 -21 125 -26 33 -88 37 -119 6z"/>
<path d="M2340 2860 c-24 -24 -26 -76 -5 -107 59 -84 360 -89 441 -8 31 31 32
87 3 116 -24 24 -75 23 -149 -6 -51 -19 -121 -16 -169 9 -42 22 -97 20 -121
-4z"/>
</g>
</svg>
